<!-- icon666.com - MILLIONS vector ICONS FREE --><svg id="Layer_1" viewBox="0 0 512 512" xmlns="http://www.w3.org/2000/svg" data-name="Layer 1"><path d="m473.637 76.725a131.791 131.791 0 0 0 -185.9 0l-31.737 31.733-31.733-31.733a131.791 131.791 0 0 0 -185.9 0 131.792 131.792 0 0 0 0 185.9l206.32 206.326a16 16 0 0 0 22.626 0l206.324-206.323a131.792 131.792 0 0 0 0-185.9zm-22.627 163.275-195.01 195.011-195.01-195.011a99.792 99.792 0 0 1 0-140.649 99.793 99.793 0 0 1 140.65 0l43.047 43.049a16 16 0 0 0 22.626 0l43.047-43.048a99.454 99.454 0 0 1 140.65 140.648z"></path></svg>